<svg xmlns="http://www.w3.org/2000/svg" width="120" height="120" viewBox="0 0 120 120">
  <defs>
    <filter id="soft" x="-10%" y="-10%" width="120%" height="120%"><feGaussianBlur stdDeviation="2.2"/></filter>
    <linearGradient id="t" x1="0" y1="0" x2="0" y2="1"><stop offset="0" stop-color="#c78f55"/><stop offset=".55" stop-color="#94602f"/><stop offset="1" stop-color="#6d4420"/></linearGradient>
    <linearGradient id="b" x1="0" y1="0" x2="0" y2="1"><stop offset="0" stop-color="#6d4420"/><stop offset=".45" stop-color="#8f5b2c"/><stop offset="1" stop-color="#b57d46"/></linearGradient>
    <linearGradient id="l" x1="0" y1="0" x2="1" y2="0"><stop offset="0" stop-color="#c78f55"/><stop offset=".55" stop-color="#94602f"/><stop offset="1" stop-color="#6d4420"/></linearGradient>
    <linearGradient id="r" x1="0" y1="0" x2="1" y2="0"><stop offset="0" stop-color="#6d4420"/><stop offset=".45" stop-color="#8f5b2c"/><stop offset="1" stop-color="#b57d46"/></linearGradient>
    <linearGradient id="iron" x1="0" y1="0" x2="1" y2="1"><stop offset="0" stop-color="#9aa1ab"/><stop offset=".5" stop-color="#626a75"/><stop offset="1" stop-color="#3a4049"/></linearGradient>
    <radialGradient id="rv" cx=".35" cy=".3" r=".8"><stop offset="0" stop-color="#f0b27c"/><stop offset=".55" stop-color="#b3683a"/><stop offset="1" stop-color="#5c3017"/></radialGradient>
    <clipPath id="eT"><rect x="36" y="0" width="48" height="36"/></clipPath>
    <clipPath id="eB"><rect x="36" y="84" width="48" height="36"/></clipPath>
    <clipPath id="eL"><rect x="0" y="36" width="36" height="48"/></clipPath>
    <clipPath id="eR"><rect x="84" y="36" width="36" height="48"/></clipPath>
    <g id="plate">
      <rect x="1" y="1" width="34" height="34" rx="5" fill="url(#iron)" stroke="#1d2229" stroke-width="2"/>
      <rect x="4" y="4" width="28" height="28" rx="3" fill="none" stroke="#c4cad3" stroke-opacity=".35" stroke-width="1"/>
      <circle cx="12" cy="12" r="3.6" fill="url(#rv)" stroke="#2a150a" stroke-width="1"/>
      <circle cx="24" cy="24" r="3.6" fill="url(#rv)" stroke="#2a150a" stroke-width="1"/>
      <circle cx="26" cy="9" r="2.2" fill="#b3683a" fill-opacity=".45"/>
      <circle cx="9" cy="27" r="2.6" fill="#b3683a" fill-opacity=".4"/>
      <path d="M6 20q6 2 10-3" stroke="#8a4a22" stroke-opacity=".5" stroke-width="1.6" fill="none"/>
    </g>
  </defs>
  <rect width="120" height="120" fill="#7d4f26"/>
  <rect x="0" y="0" width="120" height="36" fill="url(#t)"/>
  <rect x="0" y="84" width="120" height="36" fill="url(#b)"/>
  <rect x="0" y="0" width="36" height="120" fill="url(#l)"/>
  <rect x="84" y="0" width="36" height="120" fill="url(#r)"/>
  <g clip-path="url(#eT)">
    <g filter="url(#soft)">
      <ellipse cx="50" cy="15" rx="18" ry="5" fill="#3d1f0a" opacity=".34"/>
      <ellipse cx="74" cy="22" rx="14" ry="4" fill="#f0bd7a" opacity=".3"/>
      <ellipse cx="62" cy="103" rx="20" ry="5" fill="#f0bd7a" opacity=".26"/>
      <ellipse cx="44" cy="97" rx="12" ry="4" fill="#3d1f0a" opacity=".38"/>
      <ellipse cx="14" cy="55" rx="4.5" ry="14" fill="#3d1f0a" opacity=".36"/>
      <ellipse cx="25" cy="74" rx="4" ry="11" fill="#f0bd7a" opacity=".28"/>
      <ellipse cx="105" cy="52" rx="4.5" ry="13" fill="#f0bd7a" opacity=".26"/>
      <ellipse cx="96" cy="72" rx="4" ry="12" fill="#3d1f0a" opacity=".36"/>
    </g></g>
  <path d="M36 3.6H84" stroke="#3b1f0b" stroke-opacity="0.23" stroke-width="1.37"/><path d="M36 87.6H84" stroke="#3b1f0b" stroke-opacity="0.23" stroke-width="1.37"/><path d="M3.6 36V84" stroke="#3b1f0b" stroke-opacity="0.23" stroke-width="1.37"/><path d="M87.6 36V84" stroke="#3b1f0b" stroke-opacity="0.23" stroke-width="1.37"/><path d="M36 7.3H84" stroke="#3b1f0b" stroke-opacity="0.29" stroke-width="1.29"/><path d="M36 91.3H84" stroke="#3b1f0b" stroke-opacity="0.29" stroke-width="1.29"/><path d="M7.3 36V84" stroke="#3b1f0b" stroke-opacity="0.29" stroke-width="1.29"/><path d="M91.3 36V84" stroke="#3b1f0b" stroke-opacity="0.29" stroke-width="1.29"/><path d="M36 10.3H84" stroke="#3b1f0b" stroke-opacity="0.23" stroke-width="1.37"/><path d="M36 94.3H84" stroke="#3b1f0b" stroke-opacity="0.23" stroke-width="1.37"/><path d="M10.3 36V84" stroke="#3b1f0b" stroke-opacity="0.23" stroke-width="1.37"/><path d="M94.3 36V84" stroke="#3b1f0b" stroke-opacity="0.23" stroke-width="1.37"/><path d="M36 14.3H84" stroke="#3b1f0b" stroke-opacity="0.22" stroke-width="1.63"/><path d="M36 98.3H84" stroke="#3b1f0b" stroke-opacity="0.22" stroke-width="1.63"/><path d="M14.3 36V84" stroke="#3b1f0b" stroke-opacity="0.22" stroke-width="1.63"/><path d="M98.3 36V84" stroke="#3b1f0b" stroke-opacity="0.22" stroke-width="1.63"/><path d="M36 17.9H84" stroke="#3b1f0b" stroke-opacity="0.25" stroke-width="1.45"/><path d="M36 101.9H84" stroke="#3b1f0b" stroke-opacity="0.25" stroke-width="1.45"/><path d="M17.9 36V84" stroke="#3b1f0b" stroke-opacity="0.25" stroke-width="1.45"/><path d="M101.9 36V84" stroke="#3b1f0b" stroke-opacity="0.25" stroke-width="1.45"/><path d="M36 21.2H84" stroke="#3b1f0b" stroke-opacity="0.16" stroke-width="1.00"/><path d="M36 105.2H84" stroke="#3b1f0b" stroke-opacity="0.16" stroke-width="1.00"/><path d="M21.2 36V84" stroke="#3b1f0b" stroke-opacity="0.16" stroke-width="1.00"/><path d="M105.2 36V84" stroke="#3b1f0b" stroke-opacity="0.16" stroke-width="1.00"/><path d="M36 25.1H84" stroke="#3b1f0b" stroke-opacity="0.20" stroke-width="1.34"/><path d="M36 109.1H84" stroke="#3b1f0b" stroke-opacity="0.20" stroke-width="1.34"/><path d="M25.1 36V84" stroke="#3b1f0b" stroke-opacity="0.20" stroke-width="1.34"/><path d="M109.1 36V84" stroke="#3b1f0b" stroke-opacity="0.20" stroke-width="1.34"/><path d="M36 28.4H84" stroke="#3b1f0b" stroke-opacity="0.24" stroke-width="1.33"/><path d="M36 112.4H84" stroke="#3b1f0b" stroke-opacity="0.24" stroke-width="1.33"/><path d="M28.4 36V84" stroke="#3b1f0b" stroke-opacity="0.24" stroke-width="1.33"/><path d="M112.4 36V84" stroke="#3b1f0b" stroke-opacity="0.24" stroke-width="1.33"/><path d="M36 32.3H84" stroke="#3b1f0b" stroke-opacity="0.29" stroke-width="1.59"/><path d="M36 116.3H84" stroke="#3b1f0b" stroke-opacity="0.29" stroke-width="1.59"/><path d="M32.3 36V84" stroke="#3b1f0b" stroke-opacity="0.29" stroke-width="1.59"/><path d="M116.3 36V84" stroke="#3b1f0b" stroke-opacity="0.29" stroke-width="1.59"/>
  <path d="M36 7H84" stroke="#f0c88c" stroke-opacity=".22" stroke-width="1"/><path d="M36 91H84" stroke="#f0c88c" stroke-opacity=".18" stroke-width="1"/><path d="M7 36V84" stroke="#f0c88c" stroke-opacity=".22" stroke-width="1"/><path d="M91 36V84" stroke="#f0c88c" stroke-opacity=".18" stroke-width="1"/><path d="M36 17H84" stroke="#f0c88c" stroke-opacity=".22" stroke-width="1"/><path d="M36 101H84" stroke="#f0c88c" stroke-opacity=".18" stroke-width="1"/><path d="M17 36V84" stroke="#f0c88c" stroke-opacity=".22" stroke-width="1"/><path d="M101 36V84" stroke="#f0c88c" stroke-opacity=".18" stroke-width="1"/><path d="M36 26H84" stroke="#f0c88c" stroke-opacity=".22" stroke-width="1"/><path d="M36 110H84" stroke="#f0c88c" stroke-opacity=".18" stroke-width="1"/><path d="M26 36V84" stroke="#f0c88c" stroke-opacity=".22" stroke-width="1"/><path d="M110 36V84" stroke="#f0c88c" stroke-opacity=".18" stroke-width="1"/>
  <path d="M40 7.5L66 8.6" fill="none" stroke="#24110a" stroke-opacity="0.62" stroke-width="0.8" stroke-linecap="round"/><path d="M52 12.4L81 11.6" fill="none" stroke="#f6d8a6" stroke-opacity="0.5" stroke-width="0.7" stroke-linecap="round"/><path d="M58 25L72 25.9" fill="none" stroke="#24110a" stroke-opacity="0.62" stroke-width="0.8" stroke-linecap="round"/><path d="M62 18L65 19.1L68 17.6L72 18.9L75 18L80 19.2" fill="none" stroke="#150a04" stroke-opacity=".9" stroke-width="1.15" stroke-linejoin="round" stroke-linecap="round"/><path d="M62 18L65 19.1L68 17.6L72 18.9L75 18L80 19.2" fill="none" stroke="#f0c88c" stroke-opacity=".32" stroke-width=".7" stroke-linejoin="round" transform="translate(0.7,0.9)"/><path d="M38 100L58 100.9" fill="none" stroke="#24110a" stroke-opacity="0.62" stroke-width="0.8" stroke-linecap="round"/><path d="M60 107.6L83 106.8" fill="none" stroke="#f6d8a6" stroke-opacity="0.5" stroke-width="0.7" stroke-linecap="round"/><path d="M46 113L55 113.8" fill="none" stroke="#24110a" stroke-opacity="0.62" stroke-width="0.8" stroke-linecap="round"/><path d="M40 95.6L44 96.7L47 95.5L52 96.8L55 96L59 97.2" fill="none" stroke="#150a04" stroke-opacity=".9" stroke-width="1.15" stroke-linejoin="round" stroke-linecap="round"/><path d="M40 95.6L44 96.7L47 95.5L52 96.8L55 96L59 97.2" fill="none" stroke="#f0c88c" stroke-opacity=".32" stroke-width=".7" stroke-linejoin="round" transform="translate(0.7,0.9)"/><path d="M6.8 42L7.9 62" fill="none" stroke="#24110a" stroke-opacity="0.62" stroke-width="0.8" stroke-linecap="round"/><path d="M13.6 66L12.9 82" fill="none" stroke="#f6d8a6" stroke-opacity="0.5" stroke-width="0.7" stroke-linecap="round"/><path d="M27 50L28.1 61" fill="none" stroke="#24110a" stroke-opacity="0.62" stroke-width="0.8" stroke-linecap="round"/><path d="M21 70L22.2 73L20.9 76L22.4 80L21.6 83" fill="none" stroke="#150a04" stroke-opacity=".9" stroke-width="1.15" stroke-linejoin="round" stroke-linecap="round"/><path d="M21 70L22.2 73L20.9 76L22.4 80L21.6 83" fill="none" stroke="#f0c88c" stroke-opacity=".32" stroke-width=".7" stroke-linejoin="round" transform="translate(0.7,0.9)"/><path d="M112.6 40L111.5 58" fill="none" stroke="#24110a" stroke-opacity="0.62" stroke-width="0.8" stroke-linecap="round"/><path d="M105.8 61L106.9 80" fill="none" stroke="#f6d8a6" stroke-opacity="0.5" stroke-width="0.7" stroke-linecap="round"/><path d="M92 44L93 54" fill="none" stroke="#24110a" stroke-opacity="0.62" stroke-width="0.8" stroke-linecap="round"/><path d="M99 38L98 41L99.3 44.5L98.2 48L99 51.5" fill="none" stroke="#150a04" stroke-opacity=".9" stroke-width="1.15" stroke-linejoin="round" stroke-linecap="round"/><path d="M99 38L98 41L99.3 44.5L98.2 48L99 51.5" fill="none" stroke="#f0c88c" stroke-opacity=".32" stroke-width=".7" stroke-linejoin="round" transform="translate(0.7,0.9)"/>
  <rect x="1" y="1" width="118" height="118" fill="none" stroke="#2a1608" stroke-width="2.4"/>
  <rect x="35" y="35" width="50" height="50" fill="none" stroke="#2a1608" stroke-width="3"/>
  <rect x="33" y="33" width="54" height="54" fill="none" stroke="#e0a566" stroke-opacity=".35" stroke-width="1"/>
  <use href="#plate" x="0" y="0"/>
  <use href="#plate" x="84" y="0"/>
  <use href="#plate" x="0" y="84"/>
  <use href="#plate" x="84" y="84"/>
</svg>
