<svg xmlns="http://www.w3.org/2000/svg" width="74" height="90" viewBox="0 0 74 90"><defs><filter id="sh" x="-25%" y="-25%" width="150%" height="150%"><feDropShadow dx="1.6" dy="2.6" stdDeviation="1.7" flood-color="#1b0d04" flood-opacity=".6"/></filter></defs><g transform="translate(74,0) rotate(90)"><g filter="url(#sh)"><path d="M21.6,74.9 L19.8,73.1 L18.8,71.7 L18.2,70.4 L17.9,69.1 L17.8,67.6 L18.1,65.8 L18.6,63.9 L19.5,61.7 L20.6,59.5 L21.9,57.1 L23.3,54.7 L24.7,52.2 L26.2,49.6 L27.6,47 L28.8,44.3 L29.9,41.6 L30.6,38.9 L31,36.1 L30.9,33.4 L30.4,30.7 L29.3,28.1 L27.7,25.7 L26.6,26.3 L27.7,28.8 L28.2,31.2 L28.2,33.5 L27.8,35.7 L27.1,37.9 L26.1,40.1 L24.8,42.3 L23.4,44.5 L21.7,46.7 L20,49 L18.2,51.3 L16.5,53.6 L14.8,56 L13.2,58.4 L11.8,60.9 L10.6,63.6 L9.9,66.4 L9.6,69.4 L9.9,72.6 L11,75.7 L12.8,78.6 L15.1,81.1 Z" fill="#25806f" stroke="#17594f" stroke-width="1.4" stroke-linejoin="round"/><path d="M16.3,75.9 L14.9,73.7 L14,71.5 L13.7,69.2 L13.8,67 L14.4,64.7 L15.2,62.4 L16.3,60.1 L17.7,57.7 L19.2,55.4 L20.8,53 L22.4,50.6 L24,48.2 L25.5,45.7 L26.8,43.3 L28,40.8 L28.9,38.4 L29.4,35.9 L29.6,33.4" stroke="#44a898" stroke-opacity=".7" stroke-width="1.1" fill="none" stroke-linecap="round"/><path d="M37.5,75.2 L36.1,73.4 L35.3,72 L34.8,70.7 L34.5,69.2 L34.4,67.6 L34.6,65.8 L35,63.8 L35.6,61.7 L36.4,59.5 L37.4,57.2 L38.4,54.8 L39.4,52.3 L40.5,49.8 L41.5,47.2 L42.4,44.6 L43.1,41.9 L43.6,39.3 L43.8,36.6 L43.7,34 L43.2,31.4 L42.3,28.8 L41,26.4 L39.8,26.9 L40.6,29.4 L40.9,31.7 L40.9,34 L40.5,36.3 L39.9,38.5 L39,40.7 L38,42.9 L36.8,45.1 L35.5,47.3 L34.1,49.5 L32.7,51.8 L31.3,54.1 L29.9,56.5 L28.7,58.9 L27.6,61.4 L26.7,64 L26,66.7 L25.8,69.5 L26,72.5 L26.8,75.4 L28.2,78.4 L29.9,80.8 Z" fill="#44a898" stroke="#17594f" stroke-width="1.4" stroke-linejoin="round"/><path d="M32.1,75.9 L31,73.7 L30.4,71.6 L30.1,69.4 L30.2,67.1 L30.6,64.9 L31.3,62.6 L32.2,60.3 L33.2,58 L34.3,55.6 L35.5,53.3 L36.8,50.9 L38,48.5 L39.1,46.1 L40.2,43.7 L41.1,41.3 L41.7,38.9 L42.2,36.4 L42.3,34" stroke="#44a898" stroke-opacity=".7" stroke-width="1.1" fill="none" stroke-linecap="round"/><path d="M55.6,82.2 L58.1,80.3 L60.4,77.8 L61.9,74.8 L62.4,71.7 L62,68.7 L61,66.2 L59.6,64 L58,62 L56.2,60.1 L54.3,58.4 L52.4,56.7 L50.5,55 L48.6,53.4 L46.9,51.8 L45.3,50.2 L44,48.7 L42.9,47.3 L42.2,45.8 L41.8,44.4 L41.8,42.8 L42.3,41.1 L43.5,39.1 L42.4,38.3 L40.6,40.1 L39.4,42.1 L38.7,44.3 L38.7,46.6 L39.1,48.9 L40,51.1 L41.2,53.3 L42.6,55.4 L44.2,57.5 L45.8,59.5 L47.4,61.5 L48.9,63.4 L50.3,65.2 L51.5,67 L52.3,68.5 L52.8,69.7 L52.9,70.6 L52.9,71.1 L52.7,71.3 L52.3,71.7 L51.4,72.5 L49.5,73.8 Z" fill="#17594f" stroke="#17594f" stroke-width="1.4" stroke-linejoin="round"/><path d="M54.8,76.4 L56.3,74.7 L57.3,73.1 L57.6,71.4 L57.5,69.7 L56.9,68 L56,66.2 L54.7,64.5 L53.3,62.7 L51.6,60.9 L49.9,59.1 L48.1,57.3 L46.4,55.5 L44.7,53.6 L43.3,51.8 L42,49.9 L41,48.1 L40.4,46.2 L40.3,44.3" stroke="#44a898" stroke-opacity=".7" stroke-width="1.1" fill="none" stroke-linecap="round"/><path d="M75.9,76.7 L75,74.2 L74.4,71.8 L74,69.3 L73.8,66.7 L73.7,64 L73.8,61.3 L74,58.4 L74.3,55.5 L74.7,52.6 L75.2,49.5 L75.8,46.4 L76.3,43.3 L76.8,40.1 L77.3,36.9 L77.7,33.7 L78,30.5 L78.2,27.2 L78.3,23.9 L78.1,20.7 L77.8,17.4 L77.2,14.2 L76.4,11 L75.2,11.2 L75.6,14.4 L75.7,17.6 L75.6,20.7 L75.3,23.8 L74.9,26.9 L74.3,29.9 L73.6,33 L72.9,36 L72,39.1 L71.2,42.1 L70.3,45.2 L69.4,48.2 L68.6,51.3 L67.9,54.4 L67.2,57.4 L66.7,60.5 L66.3,63.7 L66.1,66.8 L66.2,70 L66.5,73.1 L67.1,76.3 L68,79.3 Z" fill="#17594f" stroke="#17594f" stroke-width="1.4" stroke-linejoin="round"/><path d="M71.1,75.2 L70.4,72.4 L70.1,69.6 L69.9,66.7 L70,63.8 L70.2,60.9 L70.6,57.9 L71.1,54.9 L71.7,51.9 L72.3,48.9 L73,45.8 L73.7,42.7 L74.4,39.6 L75.1,36.5 L75.7,33.4 L76.2,30.2 L76.6,27 L76.8,23.9 L76.9,20.7" stroke="#44a898" stroke-opacity=".7" stroke-width="1.1" fill="none" stroke-linecap="round"/></g></g></svg>
