<svg xmlns="http://www.w3.org/2000/svg" width="84" height="90" viewBox="0 0 84 90"><defs><filter id="sh" x="-25%" y="-25%" width="150%" height="150%"><feDropShadow dx="1.6" dy="2.6" stdDeviation="1.7" flood-color="#1b0d04" flood-opacity=".6"/></filter></defs><g filter="url(#sh)"><path d="M20.1,92.6 L18.9,89.4 L18.1,86.3 L17.6,83.1 L17.3,79.8 L17.3,76.4 L17.4,72.9 L17.7,69.3 L18.2,65.7 L18.8,61.9 L19.5,58.1 L20.2,54.2 L21,50.3 L21.7,46.4 L22.4,42.3 L23,38.3 L23.4,34.2 L23.7,30.2 L23.8,26.1 L23.7,22 L23.3,17.9 L22.6,13.9 L21.6,9.9 L20.4,10.1 L20.9,14.1 L21.2,18.1 L21.1,22 L20.8,25.9 L20.3,29.8 L19.6,33.7 L18.7,37.5 L17.8,41.4 L16.7,45.2 L15.6,49.1 L14.5,52.9 L13.5,56.7 L12.4,60.6 L11.5,64.4 L10.7,68.3 L10,72.1 L9.6,76 L9.4,79.9 L9.5,83.8 L9.9,87.8 L10.7,91.7 L11.9,95.4 Z" fill="#1f6558" stroke="#143f3a" stroke-width="1.4" stroke-linejoin="round"/><path d="M14.8,90.5 L14,87 L13.5,83.5 L13.4,79.9 L13.4,76.2 L13.7,72.5 L14.2,68.8 L14.9,65 L15.6,61.3 L16.5,57.4 L17.4,53.6 L18.3,49.7 L19.2,45.8 L20.1,41.9 L20.8,37.9 L21.5,34 L22,30 L22.3,26 L22.4,22" stroke="#37917f" stroke-opacity=".7" stroke-width="1.1" fill="none" stroke-linecap="round"/><path d="M31.5,95.5 L32.7,92.6 L33.6,89.4 L34,86.1 L34.2,83 L34,79.8 L33.5,76.7 L32.9,73.6 L32.1,70.6 L31.2,67.5 L30.2,64.5 L29.1,61.5 L28,58.5 L27,55.5 L26,52.5 L25,49.5 L24.2,46.5 L23.5,43.5 L23.1,40.5 L22.8,37.5 L22.7,34.4 L23,31.3 L23.6,28.1 L22.4,27.9 L21.5,31 L20.8,34.2 L20.4,37.4 L20.3,40.7 L20.5,43.9 L20.8,47.2 L21.3,50.4 L21.9,53.6 L22.6,56.7 L23.4,59.9 L24.2,63 L24.9,66 L25.6,69 L26.2,71.9 L26.7,74.8 L27,77.6 L27.2,80.2 L27.1,82.8 L26.9,85.3 L26.4,87.7 L25.6,90 L24.5,92.5 Z" fill="#37917f" stroke="#143f3a" stroke-width="1.4" stroke-linejoin="round"/><path d="M29.2,91.3 L30,88.5 L30.5,85.7 L30.6,82.9 L30.6,80 L30.3,77.1 L29.8,74.2 L29.1,71.2 L28.4,68.3 L27.5,65.3 L26.6,62.2 L25.7,59.2 L24.8,56.1 L23.9,53 L23.2,49.9 L22.5,46.8 L22,43.7 L21.7,40.6 L21.6,37.4" stroke="#37917f" stroke-opacity=".7" stroke-width="1.1" fill="none" stroke-linecap="round"/><path d="M46.1,92.7 L44.3,87.3 L43.2,82.1 L42.8,77 L42.8,71.7 L43.2,66.4 L44,61.1 L45,55.7 L46.2,50.3 L47.5,44.8 L48.7,39.4 L49.8,34 L50.6,28.6 L51.2,23.2 L51.2,17.8 L50.7,12.5 L49.6,8 L50.1,6.6 L51.2,5.2 L52.7,4.4 L54.2,4.2 L55.5,4.6 L56.5,5.3 L57.1,6.3 L57.2,7.3 L57,8.1 L56.5,8.7 L56,9.1 L55.5,9.1 L55.1,9 L54.8,8.6 L53.6,9 L53.8,9.9 L54.7,10.9 L56.1,11.3 L57.8,11 L59.3,9.9 L60.4,8 L60.5,5.6 L59.7,3.1 L57.7,1.1 L54.9,-0.2 L51.6,-0.2 L48.3,1.1 L45.6,3.8 L44,8 L44.9,13.3 L45.1,17.9 L44.9,22.7 L44.2,27.6 L43.1,32.6 L41.9,37.8 L40.5,43.1 L39,48.5 L37.6,54 L36.3,59.7 L35.3,65.4 L34.6,71.3 L34.5,77.2 L34.9,83.3 L36,89.4 L37.9,95.3 Z" fill="#1f6558" stroke="#143f3a" stroke-width="1.4" stroke-linejoin="round"/><path d="M40.2,88.4 L39.1,82.7 L38.6,77.1 L38.7,71.5 L39.2,65.9 L40.1,60.4 L41.3,54.9 L42.6,49.4 L44,44 L45.3,38.6 L46.5,33.3 L47.4,28.1 L48,22.9 L48.2,17.9 L47.8,12.9 L46.8,8 L47.8,5.2 L49.7,3.2 L52.1,2.1 L54.5,2 L56.6,2.8 L58.1,4.2 L58.8,6 L58.8,7.6 L58.2,9 L57.1,9.9" stroke="#37917f" stroke-opacity=".7" stroke-width="1.1" fill="none" stroke-linecap="round"/><path d="M59.6,95.3 L60.5,92.7 L61.2,89.8 L61.6,86.9 L61.6,84 L61.5,81.1 L61.1,78.3 L60.5,75.5 L59.9,72.7 L59.1,69.9 L58.3,67.2 L57.4,64.5 L56.5,61.7 L55.6,59 L54.8,56.3 L54,53.6 L53.3,50.8 L52.7,48.1 L52.3,45.4 L52.1,42.6 L52,39.8 L52.1,37 L52.6,34.1 L51.4,33.9 L50.6,36.7 L50,39.6 L49.7,42.6 L49.6,45.5 L49.7,48.5 L49.9,51.4 L50.3,54.3 L50.7,57.2 L51.2,60.1 L51.8,63 L52.4,65.8 L53,68.6 L53.5,71.3 L54,73.9 L54.3,76.5 L54.6,79 L54.7,81.5 L54.6,83.8 L54.4,86.1 L54,88.3 L53.4,90.4 L52.4,92.7 Z" fill="#143f3a" stroke="#143f3a" stroke-width="1.4" stroke-linejoin="round"/><path d="M56.9,91.5 L57.6,89 L58,86.5 L58.1,83.9 L58.1,81.3 L57.8,78.7 L57.4,76 L56.9,73.3 L56.3,70.6 L55.6,67.9 L54.9,65.1 L54.2,62.4 L53.4,59.6 L52.7,56.8 L52.1,53.9 L51.6,51.1 L51.2,48.3 L51,45.4 L50.9,42.6" stroke="#37917f" stroke-opacity=".7" stroke-width="1.1" fill="none" stroke-linecap="round"/><path d="M72.1,92.6 L71,89.8 L70.3,87.1 L69.8,84.3 L69.6,81.5 L69.5,78.5 L69.6,75.5 L69.9,72.3 L70.3,69.1 L70.8,65.8 L71.4,62.5 L72.1,59.1 L72.7,55.6 L73.4,52.1 L74,48.6 L74.5,45 L74.9,41.4 L75.1,37.8 L75.2,34.2 L75.1,30.6 L74.7,27 L74,23.4 L73.1,19.9 L71.9,20.1 L72.4,23.7 L72.5,27.1 L72.5,30.6 L72.2,34 L71.7,37.4 L71,40.8 L70.2,44.2 L69.4,47.6 L68.4,51 L67.4,54.3 L66.4,57.7 L65.4,61.1 L64.5,64.5 L63.6,67.9 L62.9,71.3 L62.3,74.7 L61.8,78.1 L61.7,81.6 L61.7,85.1 L62.1,88.6 L62.9,92.1 L63.9,95.4 Z" fill="#37917f" stroke="#143f3a" stroke-width="1.4" stroke-linejoin="round"/><path d="M66.9,91 L66.2,87.9 L65.8,84.7 L65.6,81.5 L65.7,78.3 L65.9,75.1 L66.4,71.8 L67,68.5 L67.7,65.2 L68.4,61.8 L69.2,58.4 L70.1,55 L70.9,51.5 L71.7,48.1 L72.4,44.6 L72.9,41.1 L73.4,37.6 L73.7,34.1 L73.8,30.6" stroke="#37917f" stroke-opacity=".7" stroke-width="1.1" fill="none" stroke-linecap="round"/><circle cx="30" cy="22" r="3.2" fill="#37917f" stroke="#143f3a" stroke-width="1"/><circle cx="29.04" cy="21.04" r="0.96" fill="#fff" opacity=".5"/><circle cx="36" cy="27" r="2.6" fill="#37917f" stroke="#143f3a" stroke-width="1"/><circle cx="35.22" cy="26.22" r="0.78" fill="#fff" opacity=".5"/></g></svg>
