<svg xmlns="http://www.w3.org/2000/svg" width="96" height="120" viewBox="0 0 96 120"><defs><filter id="sh" x="-25%" y="-25%" width="150%" height="150%"><feDropShadow dx="1.6" dy="2.6" stdDeviation="1.7" flood-color="#1b0d04" flood-opacity=".6"/></filter></defs><g transform="translate(96,0) scale(-1,1)"><g filter="url(#sh)"><path d="M34.6,125.5 L37.1,117.9 L38.6,110 L39.2,102.1 L38.9,94.4 L38.1,86.8 L36.8,79.4 L35.1,72.1 L33.2,64.9 L31.3,57.9 L29.4,51 L27.8,44.2 L26.4,37.6 L25.5,31.2 L25.1,24.9 L25.5,18.8 L26.7,12 L24.8,7 L21.6,3.7 L17.6,2.1 L13.5,2.1 L10.1,3.6 L7.7,6.1 L6.7,9.1 L6.9,11.9 L8.1,14.2 L10,15.6 L12,15.9 L13.7,15.4 L14.7,14.3 L15,13.2 L13.7,12.8 L13.4,13.3 L12.8,13.5 L12.1,13.5 L11.3,13.1 L10.7,12.3 L10.4,11.2 L10.5,9.8 L11.2,8.5 L12.5,7.4 L14.3,6.9 L16.3,7.1 L18.3,8.2 L19.8,10 L20.5,12 L19.1,17.9 L18.4,24.8 L18.5,31.7 L19.2,38.7 L20.3,45.7 L21.8,52.8 L23.5,59.8 L25.2,66.9 L26.8,74 L28.2,81 L29.2,88 L29.9,95 L29.9,101.8 L29.3,108.7 L27.9,115.4 L25.4,122.5 Z" fill="#25806f" stroke="#17594f" stroke-width="1.4" stroke-linejoin="round"/><path d="M32.5,116.7 L33.9,109.3 L34.5,102 L34.4,94.7 L33.7,87.4 L32.5,80.2 L30.9,73 L29.2,65.9 L27.4,58.8 L25.6,51.9 L24.1,45 L22.8,38.2 L22,31.5 L21.8,24.9 L22.3,18.4 L23.6,12 L22.3,8.5 L19.9,6 L17,4.6 L13.9,4.5 L11.3,5.5 L9.5,7.3 L8.6,9.4 L8.6,11.6 L9.4,13.3 L10.7,14.3" stroke="#44a898" stroke-opacity=".7" stroke-width="1.1" fill="none" stroke-linecap="round"/><path d="M49.5,122.4 L47.9,119 L46.8,115.8 L46.1,112.5 L45.8,109.1 L45.8,105.6 L46.1,102 L46.6,98.2 L47.3,94.4 L48.2,90.5 L49.3,86.5 L50.4,82.4 L51.5,78.3 L52.7,74.2 L53.7,69.9 L54.6,65.7 L55.4,61.4 L55.9,57.2 L56.2,52.9 L56.1,48.6 L55.7,44.3 L54.9,40 L53.6,35.9 L52.4,36.1 L53.3,40.4 L53.8,44.5 L53.8,48.6 L53.5,52.7 L52.9,56.7 L52,60.8 L50.9,64.8 L49.7,68.8 L48.3,72.8 L46.9,76.9 L45.5,80.9 L44,84.9 L42.7,88.9 L41.5,92.9 L40.4,97 L39.6,101 L39,105.1 L38.8,109.3 L39,113.4 L39.6,117.6 L40.8,121.7 L42.5,125.6 Z" fill="#44a898" stroke="#17594f" stroke-width="1.4" stroke-linejoin="round"/><path d="M44.4,120.4 L43.2,116.7 L42.6,113 L42.3,109.2 L42.4,105.4 L42.8,101.5 L43.5,97.6 L44.4,93.7 L45.5,89.7 L46.7,85.7 L47.9,81.6 L49.2,77.6 L50.5,73.5 L51.7,69.4 L52.8,65.3 L53.7,61.1 L54.4,56.9 L54.8,52.8 L55,48.6" stroke="#44a898" stroke-opacity=".7" stroke-width="1.1" fill="none" stroke-linecap="round"/><path d="M65.1,125.4 L66.8,121.2 L68,116.6 L68.5,111.9 L68.3,107.2 L67.7,102.6 L66.7,98 L65.7,93.5 L64.7,89 L63.8,84.4 L63.1,79.8 L62.4,75.1 L61.7,70.5 L60.8,65.9 L59.8,61.3 L58.7,56.7 L57.5,52.2 L56.5,47.6 L55.8,43 L55.5,38.3 L55.5,33.7 L55.8,29 L56.5,24.3 L53.5,23.7 L52.6,28.6 L52.1,33.4 L51.7,38.3 L51.6,43.2 L51.5,48 L51.5,52.9 L51.7,57.8 L52.1,62.6 L52.8,67.4 L53.7,72 L54.8,76.6 L55.9,81.2 L56.9,85.6 L57.6,90.1 L57.9,94.5 L57.9,98.8 L57.5,103 L57,107.1 L56.5,111 L56,114.8 L55.5,118.5 L54.9,122.6 Z" fill="#17594f" stroke="#17594f" stroke-width="1.4" stroke-linejoin="round"/><path d="M61.2,119.9 L62,115.7 L62.5,111.5 L62.6,107.2 L62.6,102.8 L62.3,98.4 L61.8,94 L61.1,89.5 L60.4,85 L59.5,80.5 L58.6,75.9 L57.7,71.3 L56.8,66.6 L55.9,61.9 L55.2,57.2 L54.5,52.5 L54,47.8 L53.7,43.1 L53.6,38.3" stroke="#44a898" stroke-opacity=".7" stroke-width="1.4" fill="none" stroke-linecap="round"/><path d="M62.5,111.5 l2.9,-3.3 M62.5,111.5 l-2.6,-3.6" stroke="#44a898" stroke-opacity=".38" stroke-width=".8" fill="none"/><path d="M62.3,98.4 l2,-3.8 M62.3,98.4 l-2.7,-3.3" stroke="#44a898" stroke-opacity=".38" stroke-width=".8" fill="none"/><path d="M60.4,85 l1.2,-4 M60.4,85 l-2.6,-3.3" stroke="#44a898" stroke-opacity=".38" stroke-width=".8" fill="none"/><path d="M57.7,71.3 l0.8,-4 M57.7,71.3 l-2.2,-3.4" stroke="#44a898" stroke-opacity=".38" stroke-width=".8" fill="none"/><path d="M55.2,57.2 l0.6,-3.9 M55.2,57.2 l-1.6,-3.6" stroke="#44a898" stroke-opacity=".38" stroke-width=".8" fill="none"/><path d="M53.7,43.1 l0.6,-3.8 M53.7,43.1 l-0.8,-3.8" stroke="#44a898" stroke-opacity=".38" stroke-width=".8" fill="none"/><path d="M23.1,122.9 L22.2,120.4 L21.6,118.1 L21.1,115.7 L20.9,113.2 L20.9,110.6 L21,108 L21.3,105.2 L21.7,102.4 L22.1,99.6 L22.7,96.7 L23.3,93.7 L23.9,90.8 L24.5,87.7 L25,84.7 L25.5,81.6 L25.9,78.5 L26.2,75.4 L26.3,72.3 L26.2,69.1 L25.9,66 L25.3,62.9 L24.5,59.9 L23.5,60.1 L23.9,63.2 L24.1,66.2 L24.1,69.2 L23.8,72.1 L23.4,75.1 L22.9,78 L22.2,81 L21.5,83.9 L20.6,86.8 L19.8,89.7 L18.9,92.7 L18.1,95.6 L17.2,98.5 L16.5,101.4 L15.9,104.4 L15.3,107.3 L15,110.3 L14.8,113.3 L14.9,116.3 L15.3,119.3 L15.9,122.3 L16.9,125.1 Z" fill="#44a898" stroke="#17594f" stroke-width="1.4" stroke-linejoin="round"/><path d="M19.1,121.4 L18.4,118.7 L18,116 L17.9,113.2 L17.9,110.5 L18.2,107.6 L18.6,104.8 L19.1,101.9 L19.7,99 L20.4,96.1 L21.1,93.2 L21.8,90.2 L22.6,87.3 L23.3,84.3 L23.9,81.3 L24.4,78.3 L24.8,75.2 L25,72.2 L25.1,69.2" stroke="#44a898" stroke-opacity=".7" stroke-width="1.1" fill="none" stroke-linecap="round"/></g></g></svg>
